<?xml version="1.0" encoding="UTF-8" standalone="no"?>
<!-- Created with Inkscape (http://www.inkscape.org/) -->

<svg
   xmlns:dc="http://purl.org/dc/elements/1.1/"
   xmlns:cc="http://creativecommons.org/ns#"
   xmlns:rdf="http://www.w3.org/1999/02/22-rdf-syntax-ns#"
   xmlns:svg="http://www.w3.org/2000/svg"
   xmlns="http://www.w3.org/2000/svg"
   xmlns:sodipodi="http://sodipodi.sourceforge.net/DTD/sodipodi-0.dtd"
   xmlns:inkscape="http://www.inkscape.org/namespaces/inkscape"
   width="64"
   height="64"
   viewBox="0 0 16.933333 16.933334"
   version="1.1"
   id="svg962"
   inkscape:version="0.92.4 (5da689c313, 2019-01-14)"
   sodipodi:docname="favicon.svg"
   inkscape:export-filename="C:\Users\takayuki\Documents\GitHub\varhil\image\favicon.png"
   inkscape:export-xdpi="96"
   inkscape:export-ydpi="96">
  <defs
     id="defs956" />
  <sodipodi:namedview
     id="base"
     pagecolor="#ffffff"
     bordercolor="#666666"
     borderopacity="1.0"
     inkscape:pageopacity="0.0"
     inkscape:pageshadow="2"
     inkscape:zoom="3.8779467"
     inkscape:cx="118.40468"
     inkscape:cy="-6.4492743"
     inkscape:document-units="mm"
     inkscape:current-layer="layer1"
     showgrid="false"
     units="px"
     inkscape:window-width="1920"
     inkscape:window-height="1137"
     inkscape:window-x="-8"
     inkscape:window-y="-8"
     inkscape:window-maximized="1" />
  <metadata
     id="metadata959">
    <rdf:RDF>
      <cc:Work
         rdf:about="">
        <dc:format>image/svg+xml</dc:format>
        <dc:type
           rdf:resource="http://purl.org/dc/dcmitype/StillImage" />
        <dc:title></dc:title>
      </cc:Work>
    </rdf:RDF>
  </metadata>
  <g
     inkscape:label="レイヤー 1"
     inkscape:groupmode="layer"
     id="layer1"
     transform="translate(0,-280.06665)">
    <g
       id="g1649"
       transform="translate(-62.60608,144.99163)">
      <ellipse
         ry="8.4666662"
         rx="8.4798956"
         cy="143.54169"
         cx="71.072746"
         id="path1519"
         style="fill:#ffffff;fill-opacity:1;stroke:none;stroke-width:0.79374999;stroke-linecap:butt;stroke-linejoin:round;stroke-miterlimit:4;stroke-dasharray:none;stroke-dashoffset:0;stroke-opacity:0.21395347" />
      <path
         style="font-style:normal;font-variant:normal;font-weight:normal;font-stretch:normal;font-size:22.57777786px;line-height:1.25;font-family:Century;-inkscape-font-specification:Century;text-align:center;letter-spacing:10.58333302px;word-spacing:0px;text-anchor:middle;display:inline;fill:#000000;fill-opacity:1;stroke:#000000;stroke-width:0;stroke-linecap:round;stroke-miterlimit:4;stroke-dasharray:none;stroke-opacity:1"
         d="m 66.180569,139.32799 v 0.49558 h 0.24448 c 0.268765,0 0.479861,0.057 0.63407,0.17156 0.158615,0.11015 0.297551,0.31073 0.416512,0.60152 l 3.449919,8.73693 h 0.09715 0.458319 l 3.026689,-8.17521 c 0.176239,-0.47585 0.372702,-0.81715 0.588594,-1.02423 0.220299,-0.20708 0.440127,-0.31057 0.660425,-0.31057 h 0.290938 v -0.49558 H 72.4391 v 0.49558 h 0.66766 c 0.25114,0 0.434845,0.0925 0.575836,0.22912 0.145397,0.13658 0.218074,0.32841 0.218074,0.57515 0,0.17624 -0.02209,0.32622 -0.06615,0.44959 l -2.208811,6.0661 -2.507857,-6.38824 -0.05323,-0.13901 c -0.07931,-0.17624 -0.118856,-0.31057 -0.118856,-0.40307 0,-0.11896 0.0529,-0.21372 0.158647,-0.28422 0.105744,-0.0705 0.306313,-0.10542 0.601514,-0.10542 h 0.592212 v -0.49558 z"
         id="path6436"
         inkscape:connector-curvature="0"
         sodipodi:nodetypes="ccscccccccsccccscsccccscsccc" />
    </g>
  </g>
</svg>
