<svg xmlns="http://www.w3.org/2000/svg" width="64" height="64" viewBox="0 0 16.93 16.93">
  <g transform="translate(-62.6 -135.08)">
    <ellipse ry="8.47" rx="8.48" cy="143.54" cx="71.07" fill="#fff"/>
    <path style="line-height:1.25;-inkscape-font-specification:Century;text-align:center" d="M66.18 139.33v.5h.25c.26 0 .47.05.63.17.16.1.3.3.42.6l3.45 8.73h.55l3.03-8.17c.17-.48.37-.82.59-1.03.22-.2.44-.3.66-.3h.29v-.5h-3.61v.5h.67c.25 0 .43.09.57.22.15.14.22.33.22.58 0 .17-.02.32-.07.45l-2.2 6.06-2.51-6.38-.06-.14a1.1 1.1 0 01-.11-.4c0-.13.05-.22.15-.3.11-.06.31-.1.6-.1h.6v-.5z" font-weight="400" font-size="22.58" font-family="Century" letter-spacing="10.58" word-spacing="0" text-anchor="middle"/>
  </g>
</svg>
