<svg xmlns="http://www.w3.org/2000/svg" width="800" height="420">
  <g fill="none" stroke="#000" stroke-width="3" stroke-linecap="round" stroke-linejoin="round">
    <path d="M100 142.5 a30 30 0 0 1 30 30 30 30 0 0 1 -30 30 30 30 0 0 1 -30 -30 30 30 0 0 1 30 -30 z"/>
    <path d="M221.5 144 h57 v57 H221.5 z"/>
    <path d="M355 172.5 c7.5 -7.5 7.5 -7.5 15 0 s7.5 7.5 15 0 7.5 -7.5 15 0 7.5 7.5 15 0 7.5 -7.5 15 0 7.5 7.5 15 0"/>
    <path d="M512.5 172.5 L550 135l37.5 37.5 L550 210 z"/>
    <path d="M655 172.5 c7.5 -7.5 7.5 -7.5 15 0 s7.5 7.5 15 0 7.5 -7.5 15 0 7.5 7.5 15 0 7.5 -7.5 15 0 7.5 7.5 15 0"/>
    <path d="M100 135 c0 -15 0 -15 15 -37.5 l15 -22.5 15 -22.5 c7.5 -11.25 15 -22.5 30 -22.5 H310 c15 0 22.5 11.25 30 22.5 7.5 11.25 15 22.5 30 22.5"/>
    <path d="M250 135 c0 -15 0 -15 15 -37.5 7.5 -11.25 15 -22.5 30 -22.5 h210 c15 0 22.5 11.25 30 22.5 l15 22.5"/>
    <path d="M250 210 c0 15 0 15 15 37.5 7.5 11.25 15 22.5 30 22.5 h45 c15 0 22.5 -11.25 30 -22.5 l15 -22.5 15 -22.5"/>
    <path d="M100 210 c0 15 0 15 15 37.5 l15 22.5 15 22.5 c7.5 11.25 15 22.5 30 22.5 H610 c15 0 22.5 -11.25 30 -22.5 l15 -22.5 15 -22.5 15 -22.5 15 -22.5"/>
    <path d="M265 315 c -15 0 -22.5 11.25 -30 22.5 -7.5 11.25 -15 22.5 -30 22.5 H100"/>
  </g>
</svg>
