<svg xmlns="http://www.w3.org/2000/svg" width="800" height="180">
  <g aria-label="Varhil" style="line-height:1.25;" font-weight="400" font-size="22.58" font-family="Century" letter-spacing="10.58" word-spacing="0" text-anchor="middle" fill="#444">
    <path d="M178.24 4.44h25.95v3.13h-4.5q-2.79 0-3.79.66-1 .67-1 1.8 0 .87.75 2.53l.34.88 16.2 41.29 14.38-39.42q.41-1.16.41-2.83 0-2.33-1.37-3.62-1.34-1.3-3.71-1.3h-4.2V4.45h22.74v3.13h-1.83q-2.09 0-4.17 1.95-2.04 1.96-3.7 6.46l-19.09 51.54h-3.04l-21.75-55.08q-1.12-2.75-2.62-3.8-1.46-1.07-4-1.07h-2zM316.55 61.77l1.5 2.33q-3.04 3.12-6.75 3.12-2.83 0-4.79-1.54-1.91-1.54-3.37-5.41-3.96 4.16-6.96 5.58-3 1.37-7.2 1.37-6 0-9.13-2.58-3.12-2.58-3.12-6.62 0-6.09 7.12-10.09 7.17-4.04 19.04-5.37v-5.92q0-3.16-2.54-5.41t-6.46-2.25q-3.62 0-6.25 1.5-1.87 1.12-1.87 2.2 0 .63 1 1.97 1.2 1.66 1.2 2.95 0 1.88-1.2 3.09-1.21 1.16-3.17 1.16-2.08 0-3.5-1.41-1.37-1.42-1.37-3.63 0-4.12 4.62-7.54 4.67-3.42 12.2-3.42 6.96 0 10.63 3 3.67 3.05 3.67 7.38v21.33q0 2.83.91 4.16.92 1.38 2.38 1.38 1.62 0 3.41-1.33zM302.9 45.3q-10.58 1.46-15 4.75-3.3 2.5-3.3 7.08 0 3.21 1.72 5.04 1.7 1.8 4.46 1.8 4.91 0 8.5-3.71 3.62-3.75 3.62-9.38zM362.26 27.02l14.03-.7V42.1q2.25-7.79 5.42-11.79 3.17-4 7.83-4 3.17 0 5.04 1.96 1.92 1.92 1.92 5.17 0 2.62-1.3 4.08-1.24 1.46-3.16 1.46-1.87 0-3.04-1.25-1.12-1.25-1.12-3.38 0-1.37.66-2.58.63-1.08.63-1.3 0-.62-.8-.62-1.7 0-3.87 2-3 2.8-4.62 7.67-2.5 7.58-2.5 12.12v8.38q0 1.41 1 2.16 1 .75 3.41.75h4.96v3.13h-24.24v-3.13h3.87q1.96 0 2.96-.75 1-.79 1-1.87V35.44q0-2.84-1.21-4.13-1.2-1.33-3.46-1.33h-3.41zM439.7 4.44l14.8-.7V33.8q3.08-4 6.62-5.96 3.54-2 7.5-2 3.74 0 6.74 1.8 2.34 1.41 3.96 4.95 1.67 3.54 1.67 8.38v18.54q0 1.79.92 2.62.91.8 2.87.8h3.33v3.12h-21.08v-3.13h2.34q2.66 0 3.66-.83 1.04-.88 1.04-2.58V40.98q0-4.88-2.37-7.58-2.33-2.75-6-2.75-2.88 0-5.33 1.54-2.46 1.54-4.17 4.7-1.7 3.13-1.7 6.63V59.1q0 2.08.87 2.96.87.87 2.87.87h3.33v3.13h-20.62v-3.13h2.34q2.37 0 3.37-.91 1-.96 1-2.92V12.52q0-2.5-1.33-3.7-1.3-1.25-3.8-1.25h-2.83zM542.9 3.73q1.87 0 3.29 1.42 1.41 1.42 1.41 3.33 0 1.88-1.37 3.25-1.38 1.38-3.3 1.38-1.9 0-3.32-1.38-1.38-1.41-1.38-3.29 0-1.87 1.42-3.3 1.41-1.4 3.25-1.4zm-10.8 23.3l15.5-.47v33.58q0 1.38.67 1.96.96.83 2.42.83h4.41v3.13h-22.16v-3.13h4.12q1.84 0 2.67-.87.88-.92.88-2.63V34.85q0-2.33-1.34-3.5-1.33-1.2-3.96-1.2h-3.2zM614.39 3.73v56.58q0 1.16.7 1.79 1.05.83 2.55.83h4.12v3.13h-22.08v-3.13h3.92q1.91 0 2.83-.91.96-.92.96-2.59V11.94q0-2.08-1.13-3.04-1.54-1.33-3.79-1.33h-3.5V4.44z"/>
  </g>
  <g aria-label="a simple logical language" style="line-height:1.25;" font-weight="400" font-size="7.06" font-family="Century" letter-spacing="2.65" word-spacing="0" text-anchor="middle" fill="#444">
    <path d="M138.29 135.6l.46.73q-.95.97-2.1.97-.89 0-1.5-.48-.6-.48-1.06-1.69-1.23 1.3-2.17 1.75-.94.42-2.25.42-1.88 0-2.85-.8-.98-.81-.98-2.07 0-1.9 2.23-3.15 2.23-1.27 5.95-1.68v-1.85q0-1-.8-1.7t-2.02-.7q-1.13 0-1.95.47-.59.35-.59.7 0 .19.32.6.37.52.37.93 0 .58-.37.96-.38.37-1 .37-.64 0-1.09-.45-.43-.44-.43-1.13 0-1.29 1.45-2.36 1.46-1.06 3.81-1.06 2.18 0 3.32.93 1.15.95 1.15 2.3v6.67q0 .89.29 1.3.28.44.74.44.5 0 1.07-.42zm-4.27-5.14q-3.31.45-4.7 1.48-1.02.78-1.02 2.21 0 1 .53 1.58.54.56 1.4.56 1.53 0 2.65-1.16 1.14-1.17 1.14-2.93zM169.09 132.34q.8 2.26 1.85 3.13 1.05.86 2.59.86 1.42 0 2.17-.61.77-.63.77-1.58 0-.55-.29-.95-.27-.42-.76-.61-.5-.2-2.57-.6-1.98-.4-2.76-.82-.78-.43-1.22-1.18-.43-.76-.43-1.65 0-1.34.9-2.43 1.15-1.4 3.24-1.4 1.59 0 2.94 1.01l.86-.91h.53l.34 4.35h-.87q-.57-1.85-1.55-2.66-.98-.82-2.4-.82-1.25 0-1.95.61-.7.6-.7 1.47 0 .77.65 1.28.64.52 2.5.82 2.16.36 2.81.61 1.07.4 1.65 1.21.59.8.59 1.98 0 1.62-1.28 2.74-1.26 1.11-3.21 1.11-1.81 0-3.36-1.2l-.95 1.1h-.7l-.25-4.86zM193.1 117.46q.6 0 1.04.45.44.44.44 1.04 0 .58-.43 1.01-.43.43-1.03.43-.6 0-1.04-.43-.43-.44-.43-1.03 0-.58.44-1.02.45-.45 1.02-.45zm-3.36 7.28l4.84-.14v10.5q0 .42.2.6.3.26.76.26h1.38v.98H190v-.98h1.29q.57 0 .83-.27.27-.29.27-.82v-7.68q0-.73-.41-1.1-.42-.37-1.24-.37h-1zM209.1 124.74l3.5-.22q.28 1.37.38 2.6.98-1.43 1.97-2.01 1-.59 2.18-.59 1.26 0 2.08.66.82.67 1.26 2.17.88-1.42 1.94-2.13 1.07-.7 2.33-.7 1.67 0 2.5.99 1.07 1.3 1.07 3.36v6.05q0 .55.28.74.36.3 1.08.3h.6v.98h-6.12v-.98h.6q.79 0 1.1-.26.31-.26.31-.78v-6.05q0-1.36-.66-2.1t-1.74-.74q-.83 0-1.49.44-.66.43-1.04 1.24-.56 1.16-.56 1.97v5.24q0 .54.29.8.28.24.88.24h.83v.98h-6.2v-.98h.7q.66 0 .99-.26.32-.26.32-.66v-5.63q0-1.78-.64-2.59-.62-.8-1.69-.8-1.38 0-2.12.93-1.05 1.33-1.05 3.1v4.87q0 .56.24.77.35.27 1.1.27h.62v.98h-6.14v-.98h.92q.52 0 .8-.26t.28-.66v-8q0-.66-.34-.98-.34-.33-1.35-.42zM245.9 124.52q.29 1.37.34 2.63.9-1.43 1.89-2.03.99-.6 2.16-.6 1.25 0 2.38.77 1.15.77 1.85 2.25.72 1.48.72 3.35 0 2.98-1.75 4.85-1.44 1.56-3.46 1.56-1.15 0-2.07-.58-.93-.59-1.64-1.75v4.94q0 .57.27.8.35.32.98.32h.9v.92h-6.5v-.92h.9q.62 0 .93-.25.32-.25.32-.65v-12.84q0-.9-.43-1.26-.43-.38-1.72-.42v-.87zm3.79 1.18q-1.42 0-2.41 1.37-.98 1.37-.98 3.96 0 2.62.95 3.87t2.43 1.25q1.38 0 2.12-1.07.95-1.4.95-4.12 0-2.83-.86-4.04-.86-1.22-2.2-1.22zM271.95 117.46v17.68q0 .37.22.56.33.26.8.26h1.29v.98h-6.9v-.98h1.22q.6 0 .88-.28.3-.29.3-.81v-14.84q0-.65-.35-.95-.48-.42-1.18-.42h-1.1v-.97zM297.18 130.93h-8.73q.06 2.78 1.04 3.93 1.12 1.29 2.85 1.29 2.55 0 4.1-2.9l.85.36q-1.9 3.7-5.5 3.7-2.45 0-4.12-1.78Q286 133.76 286 131q0-2.96 1.64-4.79 1.65-1.83 4.06-1.83 1.77 0 3.06.9 1.29.92 1.94 2.63.46 1.2.48 3.02zm-8.73-.93h5.28q.47 0 .73-.31.26-.33.26-1.1 0-1.43-.9-2.43-.88-1-2.1-1-1.35 0-2.3 1.2-.93 1.22-.97 3.64zM331.06 117.46v17.68q0 .37.22.56.32.26.8.26h1.28v.98h-6.9v-.98h1.23q.6 0 .88-.28.3-.29.3-.81v-14.84q0-.65-.35-.95-.48-.42-1.19-.42h-1.09v-.97zM350.6 124.38q2.46 0 4.13 1.78 1.68 1.77 1.68 4.67 0 2-.76 3.43-.74 1.4-2.13 2.22-1.38.82-2.99.82-2.37 0-4.02-1.8-1.64-1.79-1.64-4.65 0-2.88 1.65-4.68 1.66-1.8 4.08-1.8zm0 .92q-1.46 0-2.4 1.33-.93 1.31-.93 4.17 0 2.9.92 4.24.94 1.34 2.4 1.34 1.53 0 2.47-1.34.95-1.34.95-4.39 0-2.82-.94-4.09-.92-1.26-2.47-1.26zM377.52 125.43q1.3-1.31 2.4-1.31.65 0 1.08.41.43.42.43 1.02 0 .48-.3.8-.29.32-.68.32-.74 0-1-.91-.1-.4-.35-.4-.44 0-.97.6.56.76.77 1.33.21.56.21 1.21 0 1.14-.55 2-.54.87-1.82 1.53-1.26.67-2.42.67h-1.42q-1.5 0-2 .3-.5.33-.5.96 0 .5.4.78.4.27 1.53.27l3.21-.06q2.44 0 3.5.82 1.09.8 1.09 2.22 0 1.57-1.23 2.63-1.7 1.51-5.09 1.51-2.8 0-4.15-1.02-1.07-.81-1.07-1.81 0-.77.68-1.4.69-.65 2.3-.96-1.29-.31-1.94-.91-.65-.61-.65-1.51 0-.83.52-1.45.54-.62 1.84-1.06-1.1-.62-1.67-1.48-.56-.87-.56-1.99 0-1.77 1.4-2.97 1.39-1.2 3.61-1.2.92 0 1.76.27.85.26 1.64.8zm-3.42-.22q-1.16 0-1.92.86-.75.85-.75 2.38 0 1.64.75 2.55.76.9 1.93.9t1.92-.87q.75-.89.75-2.53 0-1.52-.77-2.4-.75-.89-1.91-.89zm.77 11.74q-2.4 0-3.43.67-1.01.66-1.01 1.6 0 .88.77 1.4 1.01.67 2.89.67 2.23 0 3.37-.74 1.13-.75 1.13-1.66 0-.53-.35-1-.35-.46-1.12-.7-.77-.24-2.25-.24zM395.63 117.46q.59 0 1.03.45.44.44.44 1.04 0 .58-.43 1.01-.43.43-1.02.43-.6 0-1.05-.43-.43-.44-.43-1.03 0-.58.45-1.02.44-.45 1.01-.45zm-3.37 7.28l4.84-.14v10.5q0 .42.21.6.3.26.76.26h1.38v.98h-6.93v-.98h1.29q.57 0 .83-.27.28-.29.28-.82v-7.68q0-.73-.42-1.1-.42-.37-1.24-.37h-1zM420.2 133.32l.85.25q-1.02 3.73-4.48 3.73-2.54 0-4.16-1.67-1.61-1.68-1.61-4.47 0-3.23 1.77-5 1.77-1.78 4.17-1.78 1.8 0 2.96.99 1.18.99 1.18 2.2 0 .73-.45 1.2-.43.48-1.03.48-.58 0-.98-.4-.4-.41-.4-.98 0-.58.43-1.1.21-.24.21-.39 0-.38-.5-.73-.51-.36-1.39-.36-1.58 0-2.4 1.16-1.18 1.68-1.18 4.42 0 2.62 1.05 3.97 1.04 1.35 2.65 1.35 2.23 0 3.3-2.87zM445.59 135.6l.46.73q-.95.97-2.1.97-.89 0-1.5-.48-.6-.48-1.06-1.69-1.23 1.3-2.17 1.75-.94.42-2.25.42-1.88 0-2.85-.8-.98-.81-.98-2.07 0-1.9 2.23-3.15 2.24-1.27 5.95-1.68v-1.85q0-1-.8-1.7t-2.02-.7q-1.13 0-1.95.47-.58.35-.58.7 0 .19.3.6.39.52.39.93 0 .58-.38.96-.38.37-1 .37-.64 0-1.09-.45-.43-.44-.43-1.13 0-1.29 1.45-2.36 1.46-1.06 3.81-1.06 2.18 0 3.32.93 1.15.95 1.15 2.3v6.67q0 .89.29 1.3.28.44.74.44.5 0 1.07-.42zm-4.27-5.14q-3.31.45-4.7 1.48-1.02.78-1.02 2.21 0 1 .53 1.58.54.56 1.4.56 1.53 0 2.65-1.16 1.14-1.17 1.14-2.93zM462.13 117.46v17.68q0 .37.22.56.33.26.8.26h1.29v.98h-6.9v-.98h1.22q.6 0 .89-.28.3-.29.3-.81v-14.84q0-.65-.36-.95-.48-.42-1.18-.42h-1.1v-.97zM497.91 117.46v17.68q0 .37.22.56.33.26.8.26h1.28v.98h-6.9v-.98h1.23q.6 0 .88-.28.3-.29.3-.81v-14.84q0-.65-.35-.95-.48-.42-1.18-.42h-1.1v-.97zM524.59 135.6l.46.73q-.95.97-2.1.97-.89 0-1.5-.48-.6-.48-1.06-1.69-1.23 1.3-2.17 1.75-.94.42-2.25.42-1.88 0-2.85-.8-.98-.81-.98-2.07 0-1.9 2.23-3.15 2.23-1.27 5.95-1.68v-1.85q0-1-.8-1.7t-2.02-.7q-1.13 0-1.95.47-.59.35-.59.7 0 .19.32.6.37.52.37.93 0 .58-.37.96-.38.37-1 .37-.64 0-1.09-.45-.43-.44-.43-1.13 0-1.29 1.45-2.36 1.46-1.06 3.81-1.06 2.18 0 3.32.93 1.15.95 1.15 2.3v6.67q0 .89.29 1.3.28.44.74.44.5 0 1.07-.42zm-4.27-5.14q-3.31.45-4.7 1.48-1.02.78-1.02 2.21 0 1 .53 1.58.54.56 1.4.56 1.53 0 2.65-1.16 1.14-1.17 1.14-2.93zM536.54 124.74l4.05-.25q.24 1.15.36 2.69.82-1.33 1.93-2 1.12-.66 2.52-.66 1.21 0 2.03.48.82.47 1.32 1.5.5 1.03.5 2.3v5.94q0 .66.3.95.3.27 1 .27h.85v.98h-6.43v-.98h.62q.85 0 1.2-.27.33-.27.33-.82v-5.22q0-1.7-.52-2.53-.73-1.17-2.21-1.17-1.47 0-2.46 1.19-.98 1.18-.98 3.08v4.52q0 .66.3.95.31.27 1.02.27h.84v.98h-6.46v-.98h.85q.64 0 .96-.26.34-.26.34-.65v-7.87q0-.79-.43-1.19-.41-.4-1.2-.4h-.63zM572.18 125.43q1.3-1.31 2.4-1.31.65 0 1.08.41.43.42.43 1.02 0 .48-.3.8-.29.32-.68.32-.74 0-1-.91-.1-.4-.35-.4-.44 0-.96.6.55.76.76 1.33.21.56.21 1.21 0 1.14-.55 2-.54.87-1.82 1.53-1.26.67-2.42.67h-1.42q-1.5 0-2 .3-.5.33-.5.96 0 .5.4.78.4.27 1.53.27l3.21-.06q2.44 0 3.5.82 1.09.8 1.09 2.22 0 1.57-1.23 2.63-1.7 1.51-5.09 1.51-2.8 0-4.15-1.02-1.07-.81-1.07-1.81 0-.77.68-1.4.69-.65 2.3-.96-1.29-.31-1.94-.91-.65-.61-.65-1.51 0-.83.52-1.45.54-.62 1.84-1.06-1.1-.62-1.67-1.48-.56-.87-.56-1.99 0-1.77 1.4-2.97 1.39-1.2 3.62-1.2.9 0 1.75.27.85.26 1.64.8zm-3.42-.22q-1.16 0-1.91.86-.76.85-.76 2.38 0 1.64.76 2.55.75.9 1.92.9t1.92-.87q.75-.89.75-2.53 0-1.52-.77-2.4-.75-.89-1.91-.89zm.77 11.74q-2.4 0-3.43.67-1.01.66-1.01 1.6 0 .88.77 1.4 1.01.67 2.89.67 2.24 0 3.37-.74 1.13-.75 1.13-1.66 0-.53-.35-1-.35-.46-1.12-.7-.77-.24-2.25-.24zM591.33 124.52v8.08q0 1.49.75 2.3.75.8 1.94.8 1.45 0 2.47-1.17 1.03-1.18 1.03-2.95V127q0-.63-.46-.97-.44-.35-1.72-.39v-.9l4.29-.23v10.01q0 .7.39 1.07.39.36 1.1.36h.76v.88l-4.1.1-.26-2.4q-1.1 1.28-2.2 1.93-1.1.65-2.24.65-1.65 0-2.77-1.1-1.14-1.1-1.14-3.71V127q0-.7-.56-1.07-.39-.26-1.6-.29v-.9zM626.34 135.6l.47.73q-.95.97-2.1.97-.9 0-1.5-.48t-1.06-1.69q-1.24 1.3-2.17 1.75-.94.42-2.26.42-1.87 0-2.85-.8-.97-.81-.97-2.07 0-1.9 2.22-3.15 2.24-1.27 5.95-1.68v-1.85q0-1-.8-1.7-.79-.7-2.01-.7-1.13 0-1.95.47-.59.35-.59.7 0 .19.31.6.38.52.38.93 0 .58-.38.96-.37.37-.99.37-.65 0-1.09-.45-.43-.44-.43-1.13 0-1.29 1.45-2.36 1.45-1.06 3.81-1.06 2.17 0 3.32.93 1.15.95 1.15 2.3v6.67q0 .89.28 1.3.29.44.74.44.51 0 1.07-.42zm-4.27-5.14q-3.3.45-4.68 1.48-1.03.78-1.03 2.21 0 1 .53 1.58.53.56 1.4.56 1.53 0 2.65-1.16 1.13-1.17 1.13-2.93zM647.64 125.43q1.3-1.31 2.4-1.31.65 0 1.08.41.43.42.43 1.02 0 .48-.3.8-.29.32-.68.32-.74 0-1-.91-.1-.4-.35-.4-.45 0-.97.6.56.76.77 1.33.21.56.21 1.21 0 1.14-.55 2-.54.87-1.82 1.53-1.26.67-2.42.67h-1.42q-1.51 0-2 .3-.5.33-.5.96 0 .5.4.78.4.27 1.53.27l3.21-.06q2.44 0 3.5.82 1.09.8 1.09 2.22 0 1.57-1.23 2.63-1.7 1.51-5.09 1.51-2.8 0-4.15-1.02-1.07-.81-1.07-1.81 0-.77.68-1.4.69-.65 2.3-.96-1.29-.31-1.94-.91-.65-.61-.65-1.51 0-.83.52-1.45.54-.62 1.84-1.06-1.1-.62-1.67-1.48-.56-.87-.56-1.99 0-1.77 1.4-2.97 1.39-1.2 3.61-1.2.91 0 1.76.27.85.26 1.64.8zm-3.42-.22q-1.16 0-1.92.86-.75.85-.75 2.38 0 1.64.75 2.55.76.9 1.93.9t1.91-.87q.76-.89.76-2.53 0-1.52-.77-2.4-.75-.89-1.91-.89zm.77 11.74q-2.4 0-3.43.67-1.01.66-1.01 1.6 0 .88.76 1.4 1.02.67 2.9.67 2.23 0 3.37-.74 1.13-.75 1.13-1.66 0-.53-.35-1-.35-.46-1.12-.7-.77-.24-2.25-.24zM674.06 130.93h-8.74q.07 2.78 1.04 3.93 1.12 1.29 2.85 1.29 2.56 0 4.1-2.9l.85.36q-1.9 3.7-5.5 3.7-2.44 0-4.12-1.78-1.67-1.77-1.67-4.53 0-2.96 1.64-4.79 1.66-1.83 4.07-1.83 1.77 0 3.06.9 1.28.92 1.94 2.63.45 1.2.48 3.02zm-8.74-.93h5.29q.47 0 .73-.31.26-.33.26-1.1 0-1.43-.9-2.43-.89-1-2.1-1-1.35 0-2.3 1.2-.94 1.22-.98 3.64z"/>
  </g>
</svg>
